<!DOCTYPE svg PUBLIC "-//W3C//DTD SVG 1.1//EN" "http://www.w3.org/Graphics/SVG/1.1/DTD/svg11.dtd">
<!-- Uploaded to: SVG Repo, www.svgrepo.com, Transformed by: SVG Repo Mixer Tools -->
<svg height="256px" width="256px" version="1.1" id="Layer_1" xmlns="http://www.w3.org/2000/svg" xmlns:xlink="http://www.w3.org/1999/xlink" viewBox="0 0 512.002 512.002" xml:space="preserve" fill="#ffffff">
<g id="SVGRepo_bgCarrier" stroke-width="0"/>
<g id="SVGRepo_tracerCarrier" stroke-linecap="round" stroke-linejoin="round"/>
<g id="SVGRepo_iconCarrier"> <path style="fill:#ffffff;" d="M498.891,479.937l-63.103,25.986c-23.344,9.613-49.843,7.737-71.598-5.07l-10.048-5.915 C225.716,419.399,92.583,286.29,17.044,157.863l-5.915-10.057c-12.794-21.751-14.665-48.237-5.056-71.57l25.994-63.122l21.63-10.25 c13.291-6.297,29.189-1.895,37.346,10.341l64.043,96.055c6.816,10.223,6.616,23.591-0.502,33.608l-19.342,27.213l-21.029,29.561 c20.38,35.915,51.96,75.261,87.41,110.712c35.451,35.474,74.821,67.053,110.736,87.434l29.562-21.03l27.216-19.343 c10.014-7.118,23.382-7.317,33.604-0.503L498.8,420.94c12.237,8.156,16.641,24.053,10.347,37.344L498.891,479.937z"/> <g> <path style="fill:#3B66B2;" d="M334.646,412.209l29.562-21.03l27.216-19.343c8.742-6.213,20.04-7.153,29.572-2.757l-18.252-12.166 c-10.223-6.814-23.59-6.613-33.604,0.503l-27.216,19.343l-29.562,21.03c-2.207-1.253-4.428-2.55-6.66-3.885 C315.498,400.686,325.193,406.845,334.646,412.209z"/> <path style="fill:#3B66B2;" d="M39.329,172.282l-5.915-10.057c-12.793-21.751-14.663-48.238-5.055-71.571l25.994-63.122 l21.63-10.25c5.148-2.44,10.685-3.256,16.013-2.651l-0.952-1.428C82.887,0.969,66.989-3.434,53.698,2.864l-21.63,10.25 L6.074,76.236c-9.609,23.333-7.738,49.819,5.055,71.571l5.915,10.057c72.401,123.092,197.711,250.477,321.074,327.358 C222.146,407.439,107.371,287.965,39.329,172.282z"/> </g> <g> <path style="fill:#3B66B2;" d="M154.576,142.866l-18.457,25.968L32.064,13.118L53.693,2.867 C66.985-3.438,82.886,0.966,91.039,13.21l64.048,96.046C161.904,119.481,161.694,132.851,154.576,142.866z"/> <path style="fill:#3B66B2;" d="M509.136,458.284l-10.251,21.655L341.57,377.011l0.354-0.249l27.213-19.348 c10.015-7.118,23.372-7.315,33.597-0.498l96.059,64.022C511.037,429.091,515.441,444.992,509.136,458.284z"/> </g> </g>
</svg>