<!DOCTYPE svg PUBLIC "-//W3C//DTD SVG 1.1//EN" "http://www.w3.org/Graphics/SVG/1.1/DTD/svg11.dtd">
<!-- Uploaded to: SVG Repo, www.svgrepo.com, Transformed by: SVG Repo Mixer Tools -->
<svg width="256px" height="256px" viewBox="0 0 64 64" xmlns="http://www.w3.org/2000/svg" fill="#000000">
<g id="SVGRepo_bgCarrier" stroke-width="0"/>
<g id="SVGRepo_tracerCarrier" stroke-linecap="round" stroke-linejoin="round"/>
<g id="SVGRepo_iconCarrier"> <g fill="none" fill-rule="evenodd"> <path fill="#3b66b2" d="M0,51 C0,49.3431458 1.33673096,48 3.00101185,48 L64,48 L64,54 L3.00101185,54 C1.34359877,54 0,52.6534829 0,51 L0,51 Z"/> <rect width="3" height="23" x="3" y="25" fill="#dce4e6"/> <rect width="3" height="23" x="6" y="25" fill="#3ba2b3"/> <rect width="3" height="23" x="9" y="25" fill="#dce4e6"/> <rect width="3" height="23" x="12" y="25" fill="#3ba2b3"/> <rect width="3" height="23" x="15" y="25" fill="#dce4e6"/> <rect width="3" height="23" x="18" y="25" fill="#3ba2b3"/> <rect width="3" height="23" x="21" y="25" fill="#dce4e6"/> <rect width="3" height="23" x="24" y="25" fill="#3ba2b3"/> <rect width="3" height="23" x="27" y="25" fill="#dce4e6"/> <rect width="3" height="23" x="30" y="25" fill="#3ba2b3"/> <rect width="3" height="23" x="33" y="25" fill="#dce4e6"/> <rect width="3" height="23" x="36" y="25" fill="#3ba2b3"/> <path fill="#3bb285" d="M3,16.009763 C3,13.795232 4.7852456,12 6.99017859,12 L39,12 L39,17.990237 C39,20.204768 37.2147544,22 35.0098214,22 L3,22 L3,16.009763 Z"/> </g> </g>
</svg>