<svg id="visual" viewBox="0 0 900 675" width="900" height="675" xmlns="http://www.w3.org/2000/svg" xmlns:xlink="http://www.w3.org/1999/xlink" version="1.1"><path d="M0 467L37.5 486.7C75 506.3 150 545.7 225 566.2C300 586.7 375 588.3 450 559.2C525 530 600 470 675 443.2C750 416.3 825 422.7 862.5 425.8L900 429L900 676L862.5 676C825 676 750 676 675 676C600 676 525 676 450 676C375 676 300 676 225 676C150 676 75 676 37.5 676L0 676Z" fill="#3B66B2" stroke-linecap="round" stroke-linejoin="miter"></path></svg>